<?xml version="1.0" standalone="no"?><!DOCTYPE svg PUBLIC "-//W3C//DTD SVG 1.1//EN" "http://www.w3.org/Graphics/SVG/1.1/DTD/svg11.dtd"><svg t="1596508028536" class="icon" viewBox="0 0 1024 1024" version="1.1" xmlns="http://www.w3.org/2000/svg" p-id="8084" width="200" height="200" xmlns:xlink="http://www.w3.org/1999/xlink"><defs><style type="text/css"></style></defs><path d="M569.6 297.6c104-25.6 276.8 17.6 358.4 89.6-60.8-150.4-224-256-416-256-169.6 0-315.2 107.2-342.4 251.2-27.2 147.2 75.2 307.2 284.8 344C350.4 752 177.6 708.8 96 636.8c60.8 148.8 224 256 416 256h11.2C689.6 889.6 830.4 784 856 640c28.8-147.2-75.2-305.6-286.4-342.4z m35.2 264c-25.6 27.2-89.6 25.6-140.8-1.6s-70.4-72-44.8-97.6 89.6-25.6 140.8 1.6 70.4 70.4 44.8 97.6z" p-id="8085" fill="#4f74f2"></path></svg>